<svg viewBox="0 0 1024 1024" xmlns="http://www.w3.org/2000/svg">
    <rect width="1024" height="1024" fill="#151515" fill-rule="evenodd"/>
    <path fill="#F4F2EC" fill-rule="evenodd" d="M303.887 534.664C301.529 525.703 299.285 515.74 297.666 506.703 293.461 483.24 291.067 459.529 290.482 435.57 289.813 408.204 291.985 380.822 296.997 353.426 302.478 323.472 312.055 294.295 326.344 267.448 350.286 222.476 389.278 185.446 439.779 173.041 458.475 168.45 477.683 167.403 497.405 169.9 509.652 171.45 522.39 174.298 534.278 178.425 551.445 184.389 567.085 191.815 581.198 200.703 618.516 224.207 650.215 257.21 674.835 293.917 699.254 330.324 717.75 369.575 730.324 411.672 731.305 414.957 732.258 418.244 733.183 421.533 703.018 423.694 672.723 427.445 642.895 432.339 620.129 436.071 593.396 441.222 568.219 447.165L568.216 447.166C547.939 451.956 536.185 454.788 519.642 459.28 518.406 459.247 517.09 459.247 516.194 459.342L516.092 459.353C512.435 459.757 508.932 461.117 505.384 462.115 458.167 475.385 411.59 490.59 366.025 508.176L366.017 508.179C359.476 510.706 352.081 513.992 346.102 516.489 331.647 522.515 323.214 526.053 320.801 527.099L320.79 527.104C315.274 529.5 309.64 532.02 303.888 534.664Z"/>
    <path fill="#F4F2EC" fill-rule="evenodd" d="M423.397 726.834C423.338 727.573 423.325 733.708 423.449 736.065V736.067C423.641 739.697 423.222 742.624 423.71 745.875 423.757 746.189 423.805 746.501 423.855 746.812 391.232 752.342 358.247 756.048 325.254 758.31 315.885 758.95 306.015 759.388 295.644 759.623 266.92 760.267 241.048 759.44 214.411 755.263 210.053 754.577 204.534 753.478 197.855 751.967 180.809 748.098 162.737 741.509 150.22 729.263 139.908 719.172 135.693 705.743 138.871 691.584 141.549 679.66 148.207 668.833 156.311 658.915 167.716 644.966 182.249 632.372 196.739 621.643 222.169 602.817 248.547 587.25 276.752 572.97 295.532 563.463 313.221 555.104 329.82 547.893 332.205 546.859 340.542 543.363 354.831 537.406 360.643 534.98 367.827 531.778 374.185 529.322 419.086 511.992 464.986 497.012 511.522 483.934 513.88 483.271 516.149 482.151 518.58 481.882 519.915 481.741 521.416 482.288 522.775 481.919 540.596 477.038 552.326 474.209 573.425 469.225 598.083 463.404 624.265 458.362 646.562 454.707 686.732 448.116 727.766 443.637 768.143 442.439 775.306 442.228 784.377 442.221 795.355 442.418 810.562 442.689 825.507 443.758 840.189 445.624 859.246 448.044 877.762 452.111 894.577 459.941 902.088 463.442 909.555 468.219 915.445 474.37 924.711 484.047 928.286 495.533 926.172 508.83 925.441 513.411 924.038 517.98 921.964 522.536 915.811 536.037 906.117 547.777 895.361 558.149 879.236 573.693 861.293 587.051 842.4 599.09 827.658 608.484 812.607 617.216 797.247 625.286 764.218 642.639 730.176 658.166 695.121 671.865 695.02 671.09 694.907 670.265 694.759 669.368 694.229 666.122 693.672 664.431 693.418 661.203 693.198 658.387 692.645 655.717 691.78 653.19 699.381 648.317 706.662 642.62 712.318 635.839 714.471 633.257 716.081 630.494 717.146 627.549 720.455 618.399 704.466 613.455 698.362 612.207 683.229 609.105 667.476 608.827 651.928 609.491 651.37 609.516 650.543 609.559 649.447 609.621L642.323 610.057C639.756 610.213 637.388 610.409 635.217 610.645 608.23 613.551 580.38 618.243 553.176 625.328 528.114 631.854 502.353 639.853 480.262 648.7 477.707 649.723 470.908 652.681 459.865 657.573 458.775 658.051 457.285 659.042 456.479 659.384 456.236 659.485 454.085 660.448 450.027 662.272 447.992 663.186 445.894 664.251 443.732 665.468 439.751 667.71 435.882 669.908 432.125 672.064 422.96 677.324 414.953 683.358 408.101 690.167 404.392 693.857 401.04 698.329 400.197 703.676 399.996 704.95 400.348 707.088 401.333 708.253 402.9 710.109 404.18 711.322 405.172 711.894 410.79 715.131 417.09 717.086 423.537 718.328 423.515 719.168 423.512 720.011 423.529 720.858V720.865C423.575 723.066 423.534 725.055 423.393 726.832Z"/>
    <path fill="#FD6E92" d="M684.99 680.725C683.633 680.237 681.566 679.502 678.789 678.519 675.644 677.399 671.611 674.617 667.329 674.975 667.293 674.978 667.257 674.984 667.222 674.993 666.86 675.083 666.637 675.455 666.727 675.816 666.729 675.825 666.732 675.834 666.734 675.843 667.331 677.895 670.595 679.046 672.497 679.423 675.039 679.924 676.745 680.382 677.614 680.796 680.485 682.158 683.407 683.292 686.379 684.196 687.283 684.469 687.712 684.433 688.464 684.517 688.928 684.568 689.382 684.684 689.814 684.86 693.175 686.208 696.792 687.173 700.664 687.755 707.064 688.718 714.315 690.148 718.847 691.174 728.002 693.248 736.42 696.528 745.137 700.242 750.084 702.348 753.404 705.645 755.518 710.729 757.66 715.866 758.008 722.11 755.833 727.427 754.636 730.358 753.562 732.419 752.61 733.61 750.747 735.941 748.395 738.252 745.555 740.542 743.148 742.485 740.902 743.826 738.817 744.564 735.645 745.684 733.095 746.365 731.167 746.607 728.592 746.93 725.817 746.541 722.843 745.439 719.088 744.053 716.947 743.283 713.96 741.404 709.183 738.405 705.088 735.668 701.674 733.195 695.498 728.726 691.459 726.062 686.346 722.522 685.023 721.606 684.08 720.908 683.517 720.427 682.261 719.35 680.947 718.786 679.617 717.813 677.132 716.008 673.306 713.299 668.137 709.686 667.222 709.045 666.157 708.383 664.943 707.702 664.731 707.582 664.46 707.639 664.311 707.834L664.209 707.97C664.159 708.033 664.142 708.115 664.161 708.193 664.175 708.25 664.208 708.3 664.255 708.336L680.425 720.708C680.614 720.852 680.692 721.105 680.617 721.335 678.71 727.059 675.903 731.798 672.778 737.044 671.656 738.929 670.188 741.059 668.373 743.436 667.784 744.211 665.949 746.678 662.87 750.837 661.827 752.242 659.953 754 657.25 756.111 656.05 757.048 653.559 758.86 649.776 761.545 649.658 761.63 649.494 761.618 649.391 761.515 642.796 754.994 638.281 750.549 635.847 748.181 634.126 746.505 631.879 744.298 629.105 741.562 628.116 740.583 627.033 739.866 625.859 739.41 625.753 739.37 625.638 739.363 625.528 739.39 625.278 739.452 625.103 739.682 625.11 739.939 625.143 740.962 625.563 741.857 626.369 742.627 628.222 744.401 630.083 746.118 631.954 747.777 634.097 749.677 635.833 751.402 637.162 752.95 638.763 754.807 640.388 756.645 642.037 758.463 643.025 759.556 645.27 761.599 648.772 764.59 648.932 764.726 649.119 764.827 649.319 764.887 650.005 765.092 650.467 765.304 650.707 765.523 653.413 768.001 656.403 771.293 659.677 775.399 662.357 778.755 667.464 784.351 671.408 789.603 674.211 793.331 675.632 796.749 675.434 801.387 675.203 806.683 673.704 811.68 669.586 815.039 667.217 816.969 664.003 819.352 660.233 820.776 656.562 822.158 654.495 822.907 654.034 823.022 650.608 823.866 646.579 824.5 641.947 824.923 639.925 825.108 637.931 825.078 635.966 824.833 632.546 824.41 630.553 824.131 629.986 823.997 624.436 822.666 623.498 818.014 621.842 813.411 619.473 806.819 617.418 799.742 615.677 792.178 615.294 790.507 614.75 788.754 614.043 786.919 612.369 782.547 610.684 777.527 609.523 774.085 608.894 772.224 608.369 770.798 607.948 769.809 607.913 769.722 607.848 769.651 607.765 769.608 607.572 769.508 607.33 769.586 607.229 769.781 607.186 769.863 607.173 769.958 607.191 770.048 608.209 774.884 609.494 779.58 611.046 784.136 611.451 785.328 611.754 786.476 611.955 787.581 611.982 787.734 611.902 787.887 611.76 787.952 606.532 790.253 600.947 792.662 595.025 794.22 589.281 795.733 584.383 796.967 580.33 797.924 580.145 797.966 579.954 797.878 579.869 797.712 575.914 789.928 571.97 781.721 568.039 773.092 566.837 770.454 565.145 768.211 562.962 766.365 562.847 766.267 562.691 766.23 562.544 766.267 562.33 766.32 562.181 766.518 562.189 766.739 562.281 769.6 563.076 772.296 564.573 774.828 565.785 776.876 566.822 778.766 567.684 780.499 570.39 785.959 572.313 789.468 577.033 798.601 577.644 799.785 578.752 801.747 580.359 804.486 581.476 806.393 582.465 808.42 583.325 810.566 584.683 813.965 586.022 817.432 587.344 820.967 589.254 826.061 590.338 830.067 590.159 835.47 589.92 842.873 585.004 849.014 578.207 851.832 567.466 856.283 554.979 856.4 543.901 853.239 540.339 852.223 536.739 849.827 533.109 847.327 528.198 843.953 525.187 838.786 524.99 832.701 524.899 829.937 525.013 827.412 525.333 825.126 526.132 819.427 527.383 813.073 529.087 806.064 529.944 802.531 530.887 798.111 531.326 794.461 531.438 793.537 531.439 792.732 531.329 792.048 531.319 791.983 531.292 791.923 531.25 791.873 531.124 791.723 530.896 791.705 530.744 791.832 530.694 791.874 530.656 791.928 530.635 791.989L527.205 801.623C527.105 801.902 526.802 802.059 526.514 801.982 517.865 799.656 509.792 797.73 502.293 796.205 502.146 796.175 502.029 796.062 501.993 795.917 501.976 795.849 501.978 795.777 501.998 795.71 503.351 791.097 505.607 786.329 506.876 781.479 508.054 776.965 508.716 773.875 508.861 772.21 508.899 771.757 508.882 771.441 508.811 771.261 508.716 771.017 508.451 770.881 508.197 770.944 508.045 770.982 507.917 771.087 507.851 771.228 506.968 773.087 506.044 775.642 505.079 778.895 503.256 785.056 502.255 787.869 499.876 794.914 499.286 796.668 497.876 799.86 496.639 802.253 494.09 807.2 491.275 812.858 489.851 818.42 488.965 821.871 488.064 825.353 487.147 828.865 486.738 830.431 485.707 833.203 484.053 837.181 482.826 840.136 481.497 842.519 480.068 844.329 476.095 849.364 471.955 852.939 465.589 854.109 458.451 855.415 452.052 854.135 445.232 852.174 441.173 851.005 438.135 848.393 434.296 845.22 433.166 844.283 431.566 842.506 429.497 839.889 425.49 834.809 424.437 829.088 426.072 822.919 426.261 822.207 427.034 820.329 428.394 817.283 430.628 812.284 434.586 807.575 438.085 803.731 442.672 798.694 450.96 793.072 455.081 789.561 457.462 787.537 459.33 784.865 461.375 782.97 461.743 782.63 464.625 780.195 470.02 775.667 472.688 773.427 474.901 770.767 476.658 767.686 476.7 767.614 476.713 767.529 476.693 767.448 476.657 767.304 476.526 767.204 476.378 767.207 476.104 767.212 475.794 767.322 475.449 767.539 474.162 768.338 472.122 770.011 470.736 771.323 467.835 774.084 465.162 776.433 462.717 778.369 462.555 778.496 462.327 778.502 462.156 778.383 460.122 776.951 458.469 775.918 456.196 774.742 452.991 773.08 451.005 771.967 450.236 771.403 444.598 767.294 439.331 761.742 437.269 754.988 436.24 751.628 435.439 748.032 434.866 744.199 434.432 741.306 434.885 738.699 434.714 735.468 434.531 732.001 434.507 729.42 434.642 727.725 434.81 725.611 434.866 723.245 434.811 720.627 434.595 710.084 438.117 700.271 441.04 690.22 441.639 688.157 442.214 684.871 442.94 682.589 443.753 680.033 445.022 675.729 446.747 669.678 446.897 669.147 447.241 668.63 447.78 668.126 447.888 668.026 448.01 667.942 448.142 667.88 454.923 664.655 458.813 662.825 459.813 662.391 473.837 656.299 488.265 650.853 503.098 646.054 535.702 635.501 568.863 627.407 602.58 621.774 605.839 621.23 610.035 620.62 615.169 619.945 620.509 619.243 626.659 618.173 631.982 617.727 639.674 617.078 647.529 616.809 655.548 616.918 656.141 616.925 656.723 617.186 657.295 617.701 660.822 620.884 663.223 623.202 664.498 624.654 666.154 626.541 668.545 629.654 671.671 633.991 674.564 638.011 676.804 642.43 678.391 647.249 678.605 647.904 679.021 649.501 679.641 652.039 679.952 653.311 680.433 654.894 681.086 656.786 681.663 658.455 682.025 660.222 682.171 662.086 682.453 665.682 683.035 667.572 683.625 671.192 684.233 674.883 684.387 677.479 685.211 680.522 685.216 680.539 685.218 680.557 685.217 680.575 685.213 680.666 685.132 680.737 685.039 680.733 685.022 680.732 685.005 680.729 684.989 680.723ZM497.846 750.392C496.853 749.28 494.998 747.738 493.442 746.665 488.193 743.065 484.63 740.431 482.754 738.763 479.278 735.674 476.152 733.051 473.378 730.892 472.756 730.406 472.102 730.065 471.416 729.87 470.855 729.71 470.271 729.975 470.081 730.475 469.891 730.979 469.972 731.521 470.325 732.101 473.705 737.599 478.097 743.112 483.331 746.854 487.701 749.98 492.521 753.069 497.573 751.412 497.886 751.31 498.069 750.979 497.99 750.66 497.965 750.56 497.916 750.468 497.848 750.392ZM463.75 745.974C465.008 747.544 470.267 753.083 472.633 750.755 473.406 749.998 472.923 748.829 472.337 748.175 470.755 746.394 469.228 744.587 467.757 742.754 466.287 740.925 464.853 739.046 463.456 737.118 462.94 736.401 461.903 735.677 460.998 736.27 458.21 738.078 462.493 744.409 463.75 745.974Z"/>
    <path fill="#F4F2EC" fill-rule="evenodd" d="M516.023 264.47C521.06 255.455 528.113 248.463 537.182 243.495 543.656 239.953 550.864 238.181 558.351 237.802 562.425 237.596 566.09 237.874 569.347 238.635 576.142 240.224 582.035 243.47 587.026 248.374 589.15 250.465 590.854 252.797 592.137 255.369 594.207 259.523 595.703 263.541 596.625 267.422 597.911 272.844 598.007 278.269 596.914 283.699 595.284 291.792 591.829 299.05 586.548 305.472 579.891 313.567 571.236 319.146 561.128 321.955 557.673 322.918 554.228 323.444 550.794 323.533 543.564 323.722 536.563 322.669 530.2 319.3 520.995 314.425 514.96 306.991 512.095 296.999 511.168 293.77 510.688 289.944 510.657 285.524 510.603 277.982 512.391 270.964 516.022 264.471ZM554.042 273.749C552.201 273.901 550.244 275.739 549.265 277.206 547.983 279.126 547.864 282.304 549.262 284.187 550.876 286.367 555.338 287.885 557.805 286.81 560.183 285.772 561.85 283.173 561.848 280.643 561.842 277.62 558.923 273.541 555.544 273.987 555.363 274.011 555.179 273.998 555.003 273.948 554.484 273.806 554.164 273.739 554.042 273.748ZM452.631 256.895C452.6 256.893 452.574 256.87 452.568 256.84 452.561 256.806 452.58 256.771 452.613 256.76 458.956 254.852 465.351 253.116 471.797 251.553 475.91 250.557 482.03 249.718 486.54 248.759 490.244 247.972 492.337 247.43 495.598 246.88 498.553 246.378 502.206 245.643 506.557 244.676 508.539 244.236 510.176 243.903 511.467 243.679 513.683 243.294 515.808 242.696 518.005 242.271 521.792 241.545 526.433 240.705 531.927 239.751L531.93 239.75C531.979 239.74 532.027 239.771 532.038 239.82 532.046 239.86 532.027 239.9 531.991 239.919 520.858 246.868 512.91 256.388 508.149 268.481 505.009 276.458 503.442 285.08 504.715 293.745 507.04 309.56 517.198 322.542 532.255 328.152 539.387 330.808 546.505 331.691 553.61 330.801 565.09 329.364 575.139 324.914 583.756 317.452 583.777 317.434 583.802 317.422 583.829 317.416 583.917 317.397 584.005 317.454 584.024 317.543 584.026 317.551 584.027 317.559 584.027 317.566 584.336 322.426 584.676 326.385 585.047 329.445 585.281 331.373 585.48 333.82 585.646 336.784 585.731 338.303 585.98 340.748 586.394 344.12 586.735 346.903 587.254 349.663 587.401 352.659 587.575 356.258 587.79 358.769 588.044 360.193 588.844 364.639 589.425 368.487 589.787 371.739 590.438 377.541 590.877 380.061 591.817 385.294 592.656 389.948 592.971 392.859 593.927 399.121 594.341 401.821 594.662 404.641 594.889 407.581 595.338 413.369 595.59 416.531 595.647 417.067 595.943 419.747 596.083 422.76 596.067 426.106 596.048 431.026 596.015 434.049 595.968 435.174 595.919 436.423 595.637 438.648 595.121 441.849 594.654 444.747 594.29 447.391 592.577 449.774 591.382 451.439 589.532 453.088 587.027 454.721 582.51 457.668 577.413 459.921 571.656 461.695 567.696 462.918 565.042 463.7 563.694 464.041L557.604 465.371C554.735 465.999 551.876 466.338 549.13 466.922 545.587 467.675 542.506 467.976 539.191 468.792 534.006 470.07 530.451 470.839 528.526 471.098 524.962 471.582 520.708 471.973 515.765 472.273 513.403 472.415 509.733 472.811 504.754 473.459 501.339 473.904 497.346 474.453 492.777 475.108 491.669 475.267 490.704 475.347 489.879 475.349 486.837 475.349 482.877 475.887 479.64 475.895 475 475.909 472.963 475.977 469.429 475.628 466.33 475.322 463.943 475.142 462.266 475.088 460.053 475.019 458.494 473.706 456.756 472.506 454.473 470.929 453.435 468.89 451.931 466.015 449.253 460.906 447.008 455.781 445.196 450.64 443.625 446.174 442.657 440.664 441.728 436.794 440.707 432.538 439.92 426.858 439.368 419.753 439.367 419.745 439.367 419.737 439.368 419.729 439.375 419.649 439.448 419.588 439.53 419.595 439.538 419.596 439.546 419.597 439.553 419.599 440.939 419.941 442.263 419.693 443.527 418.854 443.596 418.808 444.943 417.963 447.567 416.319 448.341 415.833 449.486 415.6 451.004 415.621 451.128 415.623 452.991 415.699 456.593 415.849 461.087 416.038 465.613 414.007 466.249 409.082 466.296 408.719 466.554 408.392 467.023 408.099 470.612 405.859 474.025 403.795 477.263 401.909 478.224 401.35 479.046 400.946 479.729 400.699 483.61 399.284 487.326 396.925 489.705 393.367 494.335 386.446 494.915 375.3 484.994 372.597 484.772 372.538 484.59 372.38 484.503 372.169 482.015 366.164 476.862 363.195 470.342 364.974 465.421 366.318 462.817 367.006 462.531 367.038 462.405 367.05 462.286 366.98 462.233 366.865 461.812 365.911 461.828 364.674 461.819 363.336 461.803 360.909 460.906 358.719 458.728 357.506 456.116 356.045 453.31 356.835 450.72 357.954 449.236 358.594 447.693 359.385 446.092 360.328 442.188 362.623 439.605 364.162 438.342 364.946 437.014 365.772 435.813 366.642 434.74 367.556 434.727 367.568 434.711 367.576 434.694 367.579 434.641 367.59 434.589 367.556 434.578 367.504L434.576 367.494C434.17 364.138 433.343 359.239 433.181 355.466 433.087 353.241 432.914 351.436 432.663 350.05 432.651 349.988 432.691 349.928 432.752 349.915 432.77 349.911 432.788 349.912 432.806 349.916 438.96 351.536 445.029 352.136 451.013 351.715 454.955 351.437 459.094 350.597 463.43 349.194 474.278 345.68 482.921 339.251 489.358 329.907 492.275 325.67 495.001 320.215 496.348 315.136 500.853 298.158 495.859 280.483 482.552 268.897 474.337 261.743 463.589 257.119 452.629 256.896ZM467.001 429.046C466.326 430.186 465.758 431.266 465.299 432.289 463.589 436.084 462.262 443.193 464.419 447.184 466.038 450.178 467.093 452.231 470.541 453.303 471.187 453.502 473.684 453.997 474.672 453.869 476.877 453.584 478.012 453.434 478.076 453.421 481.39 452.649 483.985 449.034 484.875 446.01 485.647 443.387 485.81 440.858 485.364 438.425 484.862 435.676 483.239 433.558 481.198 430.747 478.758 427.388 473.426 422.902 469.399 426.307 468.363 427.183 467.563 428.096 467 429.047ZM557.168 407.882C557.027 407.891 556.886 407.901 556.746 407.915 555.793 407.996 554.696 408.667 553.453 409.927 550.97 412.438 548.724 415.611 547.966 419.193 547.55 421.15 547.327 423.016 547.298 424.793 547.245 427.671 548.387 430.42 549.938 432.757 551.979 435.837 556.025 437.164 559.602 437.072 561.297 437.029 562.695 436.578 563.797 435.719 567.522 432.815 571.417 427.462 571.11 422.366 570.816 417.568 570.108 413.547 566.402 410.442 564.394 408.764 561.757 408.248 559.271 408.137 558.629 408.109 558.281 408.09 558.226 408.08 557.564 407.947 557.211 407.881 557.169 407.883ZM562.39 354.087C562.242 354.151 562.079 354.178 561.917 354.166 561.244 354.112 560.309 353.832 559.357 353.859 555.772 353.96 553.049 355.915 551.949 359.28 551.687 360.077 551.36 360.902 550.967 361.755 550.134 363.555 549.76 365.425 550.028 367.309 550.16 368.246 550.229 368.782 550.234 368.917 550.243 369.137 550.211 369.357 550.14 369.566 549.109 372.569 548.513 375.566 551.811 377.224 553.18 377.912 554.99 377.835 556.003 378.817 557.386 380.16 556.891 381.298 556.847 382.938 556.748 386.641 559.802 389.19 563.404 388.125 565.029 387.644 566.542 387.31 567.942 387.125 569.637 386.903 570.807 386.624 571.453 386.289 573.512 385.215 574.877 383.799 575.547 382.041 576.525 379.477 577.134 376.507 577.374 373.132 577.58 370.224 577.425 368.003 576.908 366.468 576.734 365.95 576.687 365.52 576.77 365.178 577.144 363.64 577.899 362.25 578.424 360.716 579.402 357.851 579.018 355.407 577.273 353.383 573.943 349.519 568.028 351.356 564.144 353.093 563.628 353.324 562.95 353.851 562.393 354.087ZM463.339 265.249C476.125 269.458 485.839 279.693 489.51 292.505 491.411 299.138 491.459 305.979 489.655 313.03 487.838 320.141 484.396 326.252 479.33 331.363 474.94 335.797 469.901 339.279 464.215 341.81 459.356 343.972 453.987 345.046 448.622 345.4 437.8 346.113 425.89 342.175 417.835 335.052 413.322 331.06 409.791 325.907 407.243 319.593 406.615 318.032 406.531 316.363 406.05 314.685 405.917 314.218 405.804 313.554 405.709 312.695 405.389 309.765 405.193 306.699 405.122 303.494 405.06 300.781 405.276 297.757 405.77 294.42 406.169 291.733 407.001 289.178 408.266 286.755 409.269 284.836 410.199 283.252 411.056 282.005 419.434 269.798 433.597 262.32 448.508 262.603 453.307 262.693 458.251 263.575 463.339 265.248ZM445.944 299.575C445.791 299.61 445.644 299.674 445.512 299.763 444.198 300.643 442.512 302.617 442.334 304.317 442.214 305.458 442.228 306.846 442.376 308.483 442.398 308.731 442.471 308.971 442.59 309.188 444.733 313.082 446.944 313.563 451.006 312.157 454.368 310.992 455.422 307.658 454.523 304.507 453.893 302.282 453.251 300.356 450.841 299.628 449.329 299.173 447.696 299.155 445.944 299.575Z"/>
    <path fill="#151515" fill-rule="evenodd" d="M604.063 282.622C604.04 282.612 604.014 282.61 603.99 282.615 603.939 282.626 603.901 282.667 603.894 282.719 603.475 285.925 602.706 289.076 601.589 292.173 598.859 299.733 594.768 306.442 589.314 312.3 589.154 312.472 589.079 312.707 589.111 312.94 589.279 314.22 589.54 315.733 589.619 316.946 590.077 323.844 590.985 330.066 591.496 336.942 591.822 341.348 592.103 344.318 592.339 345.852 592.811 348.937 593.245 352.159 593.639 355.516 594.268 360.897 595.505 366.128 596.072 371.552 596.369 374.384 596.579 376.127 596.701 376.78 597.424 380.63 597.833 382.804 597.927 383.303 598.753 387.574 598.929 391.55 599.66 395.863 600.578 401.27 601.086 404.69 601.183 406.123 601.589 412.08 601.965 417.001 602.313 420.888 602.612 424.245 602.461 427.455 602.529 431.436 602.627 437.277 602.02 442.778 600.574 448.1 598.365 456.236 590.001 461.181 583.065 464.804 580.185 466.31 577.414 467.511 574.752 468.408 570.152 469.958 566.391 471.365 562.182 472.295 553.664 474.18 547.982 475.387 545.138 475.918 541.012 476.684 536.702 477.933 532.313 478.844 528.473 479.646 524.867 479.883 520.771 480.168 514.66 480.59 509.808 481.054 506.212 481.561 499.463 482.512 495.287 483.105 493.684 483.341 491.318 483.694 487.735 483.587 485.284 483.876 483.663 484.07 481.895 484.228 480.222 484.191 475.536 484.09 470.937 484.163 466.225 483.535 462.807 483.078 459.298 483.499 456.076 481.711 453.201 480.115 451.085 478.678 449.727 477.399 447.759 475.542 445.927 473.02 444.23 469.835 441.674 465.031 439.348 459.726 437.251 453.919 436.547 451.974 435.943 449.9 435.438 447.695 433.569 439.525 432.09 433.527 431.393 426.312 430.616 418.285 430.166 413.025 430.044 410.532 429.874 407.03 429.715 404.192 429.568 402.019 429.349 398.794 429.235 396.669 429.224 395.644 429.204 393.346 429.146 389.927 428.838 387.137 428.319 382.443 427.749 375.573 426.839 369.662 426.509 367.514 426.178 364.925 425.846 361.895 425.301 356.928 425.532 351.861 424.77 346.962 424.74 346.771 424.621 346.605 424.45 346.515 418.01 343.202 412.512 338.691 407.955 332.982 407.921 332.941 407.867 332.921 407.814 332.933 407.784 332.939 407.756 332.956 407.736 332.979 397.638 344.562 384.37 353.49 369.972 359.238 360.543 363.003 350.806 365.02 340.762 365.289 334.742 365.453 327.466 364.198 321.732 361.099 314.876 357.395 310.981 351.046 310.625 343.233 310.36 337.431 312.555 331.042 315.56 325.739 317.754 321.868 320.489 318.115 323.765 314.48 331.11 306.325 339.739 299.725 349.652 294.68 353.246 292.853 356.654 291.265 359.877 289.915 366.904 286.974 374.279 285.21 382.026 284.328 389.427 283.484 396.542 284.142 403.373 286.303 403.469 286.334 403.576 286.289 403.622 286.196 408.883 275.401 416.945 267.376 427.807 262.122 427.91 262.072 427.971 261.964 427.96 261.85 427.552 257.555 427.304 254.678 427.216 253.219 426.987 249.496 426.94 245.397 427.076 240.925 427.167 237.857 427.114 235.302 427.147 232.464 427.193 228.812 426.826 224.798 426.91 221.245 427.04 215.77 427.157 211.948 427.261 209.779 427.354 207.797 428.558 203.338 430.691 202.541 432.914 201.715 434.067 203.893 434.663 205.743 435.15 207.25 435.674 209.478 436.234 212.426 436.652 214.627 437.249 218.683 438.027 224.594 438.8 230.467 439.939 235.908 440.73 240.962 441.368 245.016 442.296 249.613 443.515 254.753 443.613 255.171 443.749 255.566 443.921 255.939 443.969 256.04 444.086 256.091 444.193 256.056 446.031 255.475 447.817 254.861 449.553 254.216 455.469 252.015 463.619 249.614 466.651 248.526 470.096 247.293 473.133 246.802 476.588 245.738 477.125 245.572 478.462 245.238 480.6 244.739 481.558 244.514 485.855 243.524 493.491 241.77 497.768 240.786 502.906 239.972 507.695 239.094 512.259 238.253 516.393 237.488 520.864 236.445 523.987 235.717 526.453 235.379 529.431 234.728 529.884 234.629 531.037 234.45 532.891 234.189 536.297 233.71 538.627 233.396 539.882 233.246 544.492 232.695 548.9 232.35 553.105 232.212 553.116 232.212 553.127 232.211 553.139 232.209 553.304 232.185 553.42 232.031 553.397 231.868 553.395 231.857 553.393 231.845 553.39 231.834 552.976 230.221 552.734 228.573 552.665 226.891 552.393 220.341 552.188 215.92 552.051 213.629 551.876 210.739 552.038 208.424 551.93 205.509 551.832 202.946 552.047 200.898 552.126 198.426 552.244 194.777 552.826 191.343 553.844 186.666 554.285 184.639 554.989 182.198 556.585 181.301 558.679 180.123 560.616 181.82 561.808 183.611 564.87 188.214 565.925 194.488 566.418 199.984 566.547 201.443 567.346 210.107 568.815 225.974 569.053 228.575 569.45 230.443 569.425 232.61 569.423 232.686 569.479 232.753 569.555 232.768 577.81 234.43 585.031 238.102 591.219 243.783L591.233 243.795C591.324 243.866 591.457 243.849 591.53 243.757L591.54 243.744C592.035 243 592.673 242.375 593.454 241.868 597.128 239.493 601.235 237.98 605.037 236.264 608.809 234.569 612.265 233.595 616.613 232.138 619.713 231.1 623.074 230.482 625.84 229.591 629.119 228.537 632.646 227.998 636.738 227.067 637.395 226.918 639.24 226.606 642.272 226.13 646.25 225.506 649.788 225.354 653.974 224.936 654.63 224.871 656.272 224.847 658.902 224.864 660.493 224.874 662.134 224.961 663.822 225.126 667.947 225.531 671.935 226.176 675.786 227.062 679.055 227.811 681.891 228.705 684.294 229.743 687.001 230.909 689.639 232.277 692.207 233.844 693.85 234.846 696.024 236.868 697.124 237.889 698.796 239.442 700.13 241.334 701.126 243.565 702.267 246.12 703.205 248.873 703.94 251.824 704.689 254.834 704.918 257.508 704.626 259.845 704.092 264.105 702.374 267.892 699.471 271.206 697.206 273.791 694.877 275.969 692.481 277.739 689.153 280.2 685.682 282.376 682.066 284.267 678.582 286.087 675.508 287.098 671.491 288.427 669.44 289.104 668.041 289.518 667.294 289.669 664.575 290.216 663.142 290.504 662.995 290.533 657.689 291.632 651.991 292.065 645.904 291.832 640.808 291.636 637.288 291.487 635.343 291.385 631.119 291.165 627.62 290.79 624.846 290.26 620.114 289.355 615.726 287.968 611.68 286.099 610.241 285.437 607.702 284.278 604.064 282.621ZM463.339 265.249C458.251 263.576 453.307 262.694 448.508 262.604 433.597 262.321 419.434 269.799 411.056 282.006 410.199 283.253 409.269 284.837 408.266 286.756 407.001 289.179 406.169 291.734 405.77 294.421 405.276 297.757 405.06 300.782 405.122 303.495 405.193 306.699 405.389 309.766 405.709 312.696 405.803 313.555 405.917 314.219 406.05 314.686 406.532 316.364 406.615 318.033 407.243 319.594 409.791 325.908 413.321 331.061 417.835 335.053 425.89 342.177 437.8 346.114 448.622 345.401 453.987 345.047 459.356 343.974 464.215 341.811 469.901 339.28 474.939 335.798 479.33 331.364 484.396 326.253 487.838 320.142 489.655 313.031 491.459 305.98 491.411 299.139 489.51 292.506 485.839 279.693 476.126 269.459 463.339 265.25ZM445.944 299.575C447.697 299.155 449.329 299.172 450.841 299.628 453.251 300.356 453.893 302.282 454.523 304.507 455.422 307.658 454.368 310.992 451.006 312.157 446.944 313.564 444.733 313.083 442.59 309.188 442.471 308.971 442.398 308.731 442.376 308.483 442.228 306.846 442.214 305.458 442.334 304.317 442.512 302.617 444.198 300.643 445.512 299.763 445.644 299.674 445.791 299.61 445.944 299.575ZM516.023 264.47C512.392 270.963 510.604 277.981 510.658 285.523 510.69 289.944 511.169 293.769 512.096 296.998 514.961 306.99 520.996 314.424 530.201 319.299 536.565 322.668 543.565 323.721 550.795 323.532 554.229 323.443 557.673 322.917 561.129 321.954 571.237 319.144 579.891 313.566 586.549 305.471 591.83 299.049 595.285 291.791 596.915 283.698 598.008 278.269 597.912 272.843 596.626 267.421 595.703 263.54 594.207 259.522 592.138 255.368 590.855 252.796 589.151 250.464 587.027 248.373 582.036 243.469 576.143 240.223 569.348 238.634 566.091 237.873 562.425 237.595 558.352 237.801 550.866 238.181 543.658 239.952 537.183 243.494 528.114 248.462 521.061 255.454 516.024 264.469ZM554.042 273.749C554.164 273.74 554.484 273.806 555.003 273.949 555.179 273.999 555.363 274.012 555.544 273.988 558.923 273.541 561.842 277.621 561.848 280.644 561.85 283.174 560.182 285.773 557.805 286.811 555.338 287.886 550.877 286.368 549.262 284.188 547.864 282.305 547.983 279.127 549.265 277.207 550.244 275.741 552.201 273.902 554.042 273.75ZM452.631 256.895C463.591 257.118 474.339 261.742 482.554 268.896 495.861 280.483 500.855 298.158 496.35 315.135 495.003 320.215 492.277 325.669 489.36 329.906 482.923 339.25 474.28 345.679 463.432 349.193 459.096 350.596 454.956 351.437 451.015 351.714 445.031 352.135 438.962 351.536 432.808 349.915 432.79 349.91 432.772 349.91 432.754 349.914 432.693 349.927 432.653 349.988 432.665 350.049 432.917 351.435 433.089 353.24 433.183 355.465 433.345 359.237 434.172 364.137 434.578 367.493L434.58 367.503C434.591 367.556 434.644 367.59 434.696 367.578 434.713 367.574 434.729 367.566 434.742 367.555 435.815 366.641 437.016 365.771 438.344 364.945 439.607 364.162 442.191 362.623 446.094 360.327 447.695 359.384 449.238 358.592 450.722 357.953 453.311 356.834 456.117 356.045 458.73 357.505 460.907 358.719 461.805 360.908 461.821 363.335 461.83 364.673 461.814 365.91 462.235 366.864 462.287 366.979 462.407 367.048 462.533 367.037 462.819 367.005 465.423 366.317 470.344 364.973 476.864 363.194 482.017 366.163 484.505 372.168 484.593 372.379 484.775 372.537 484.996 372.596 494.917 375.298 494.338 386.445 489.707 393.366 487.329 396.924 483.612 399.283 479.731 400.698 479.047 400.946 478.225 401.349 477.265 401.908 474.027 403.795 470.614 405.858 467.025 408.098 466.556 408.391 466.298 408.718 466.251 409.081 465.614 414.006 461.088 416.037 456.595 415.848 452.994 415.698 451.131 415.623 451.006 415.62 449.489 415.599 448.343 415.832 447.569 416.318 444.945 417.962 443.598 418.807 443.529 418.853 442.266 419.691 440.941 419.939 439.555 419.598 439.547 419.596 439.54 419.595 439.532 419.594 439.45 419.587 439.377 419.647 439.37 419.728 439.369 419.736 439.369 419.744 439.37 419.752 439.922 426.857 440.709 432.537 441.73 436.793 442.66 440.663 443.627 446.173 445.198 450.639 447.01 455.78 449.255 460.905 451.933 466.014 453.438 468.89 454.475 470.928 456.758 472.505 458.496 473.705 460.055 475.018 462.268 475.087 463.945 475.14 466.333 475.32 469.431 475.627 472.965 475.977 475.002 475.908 479.642 475.894 482.878 475.885 486.839 475.347 489.881 475.348 490.705 475.347 491.671 475.267 492.779 475.107 497.348 474.453 501.341 473.903 504.756 473.458 509.734 472.81 513.404 472.414 515.767 472.272 520.71 471.972 524.963 471.58 528.528 471.097 530.453 470.838 534.008 470.069 539.193 468.791 542.508 467.976 545.59 467.674 549.132 466.921 551.878 466.337 554.737 465.998 557.606 465.37L563.696 464.04C565.044 463.699 567.698 462.917 571.658 461.694 577.414 459.92 582.512 457.668 587.029 454.72 589.534 453.087 591.384 451.438 592.579 449.773 594.292 447.389 594.656 444.746 595.123 441.848 595.639 438.648 595.921 436.423 595.97 435.173 596.017 434.048 596.05 431.025 596.069 426.105 596.084 422.759 595.944 419.745 595.649 417.066 595.592 416.53 595.34 413.368 594.891 407.58 594.664 404.64 594.343 401.82 593.929 399.12 592.973 392.857 592.658 389.947 591.819 385.293 590.878 380.06 590.439 377.541 589.789 371.738 589.427 368.486 588.846 364.637 588.046 360.192 587.791 358.769 587.577 356.258 587.403 352.658 587.256 349.662 586.737 346.902 586.396 344.119 585.982 340.747 585.733 338.302 585.648 336.783 585.482 333.818 585.283 331.372 585.049 329.444 584.678 326.385 584.337 322.425 584.029 317.565 584.028 317.557 584.027 317.549 584.026 317.542 584.007 317.454 583.919 317.397 583.831 317.415 583.804 317.421 583.779 317.433 583.758 317.451 575.141 324.913 565.092 329.363 553.612 330.8 546.507 331.691 539.389 330.808 532.257 328.151 517.2 322.541 507.042 309.559 504.717 293.744 503.443 285.079 505.01 276.457 508.151 268.48 512.913 256.388 520.86 246.867 531.993 239.918 532.029 239.899 532.048 239.858 532.04 239.819 532.03 239.77 531.981 239.739 531.932 239.749L531.929 239.75C526.434 240.703 521.793 241.543 518.007 242.27 515.81 242.694 513.685 243.292 511.469 243.678 510.178 243.902 508.541 244.235 506.559 244.675 502.209 245.643 498.556 246.377 495.6 246.879 492.339 247.429 490.245 247.971 486.542 248.758 482.031 249.717 475.912 250.556 471.799 251.552 465.352 253.115 458.957 254.851 452.615 256.759 452.582 256.771 452.563 256.805 452.57 256.839 452.576 256.869 452.602 256.892 452.633 256.894ZM467.001 429.046C467.564 428.095 468.363 427.181 469.4 426.306 473.427 422.902 478.759 427.387 481.199 430.746 483.241 433.558 484.863 435.675 485.365 438.424 485.811 440.857 485.648 443.386 484.876 446.009 483.985 449.033 481.39 452.648 478.077 453.42 478.013 453.434 476.879 453.583 474.673 453.868 473.685 453.996 471.189 453.501 470.542 453.302 467.094 452.23 466.039 450.177 464.42 447.183 462.263 443.191 463.59 436.082 465.3 432.288 465.759 431.266 466.327 430.185 467.002 429.045ZM562.39 354.087C562.947 353.851 563.625 353.324 564.141 353.093 568.025 351.356 573.94 349.52 577.27 353.383 579.016 355.407 579.399 357.851 578.421 360.716 577.896 362.25 577.141 363.64 576.767 365.178 576.685 365.52 576.731 365.949 576.905 366.468 577.422 368.002 577.577 370.224 577.371 373.132 577.131 376.507 576.521 379.477 575.544 382.041 574.874 383.799 573.509 385.215 571.45 386.289 570.804 386.624 569.634 386.903 567.939 387.125 566.539 387.311 565.027 387.644 563.401 388.125 559.799 389.191 556.745 386.641 556.844 382.938 556.889 381.299 557.383 380.161 556 378.817 554.987 377.835 553.177 377.912 551.808 377.224 548.51 375.566 549.106 372.569 550.137 369.566 550.208 369.357 550.24 369.137 550.231 368.917 550.226 368.782 550.158 368.246 550.025 367.309 549.757 365.425 550.131 363.555 550.964 361.755 551.357 360.902 551.684 360.077 551.946 359.28 553.046 355.915 555.769 353.96 559.354 353.859 560.306 353.832 561.241 354.112 561.914 354.166 562.076 354.178 562.239 354.151 562.387 354.087ZM557.168 407.882C557.21 407.88 557.563 407.946 558.225 408.079 558.28 408.089 558.628 408.108 559.27 408.136 561.756 408.247 564.393 408.763 566.401 410.441 570.106 413.546 570.814 417.567 571.109 422.365 571.417 427.461 567.522 432.814 563.796 435.718 562.694 436.577 561.296 437.027 559.601 437.071 556.025 437.163 551.979 435.835 549.937 432.756 548.386 430.419 547.244 427.67 547.297 424.792 547.327 423.015 547.55 421.149 547.965 419.192 548.723 415.61 550.969 412.438 553.452 409.926 554.695 408.666 555.793 407.995 556.745 407.914 556.885 407.901 557.026 407.89 557.167 407.881Z"/>
    <path fill="#151515" fill-rule="evenodd" d="M429.106 474.664C429.165 474.715 439.292 487.476 436.582 488.262 422.178 492.468 412.117 495.537 406.397 497.47 401.353 499.178 394.149 501.682 384.785 504.984 381.304 506.211 378.279 507.333 375.712 508.349 370.168 510.544 367.157 511.716 366.677 511.866 363.269 512.942 361.841 508.63 361.025 506.123 356.354 491.73 358.792 474.904 370.475 464.497 370.602 464.384 370.799 464.394 370.914 464.519 375.533 469.404 380.397 474.927 385.506 481.087 387.156 483.078 388.779 484.678 391.379 487.349 391.744 487.721 392.068 487.971 392.352 488.099 392.441 488.139 392.534 488.166 392.631 488.179 393.199 488.26 393.733 487.857 393.814 487.286 393.828 487.191 393.828 487.094 393.815 486.998 393.457 484.337 393.219 482.768 393.1 482.291 392.445 479.664 392.44 478.008 391.914 475.717 391.674 474.689 391.498 473.82 391.385 473.109 390.389 466.998 389.66 462.016 389.199 458.162 389.153 457.764 389.117 457.282 389.091 456.718 389.085 456.583 389.191 456.467 389.328 456.457 399.695 455.793 409.147 458.384 417.683 464.23 422.105 467.261 425.907 470.732 429.088 474.643L429.107 474.663Z"/>
    <path fill="#151515" fill-rule="evenodd" d="M586.31 418.857C586.355 418.734 590.336 411.062 590.398 410.974 595.32 404.374 601.556 399.603 609.106 396.66 609.3 396.583 609.525 396.66 609.635 396.84 613.969 404.231 618.644 411.28 623.661 417.987 624.354 418.907 625.349 419.727 626.358 419.41 626.785 419.277 627.003 418.955 627.014 418.446 627.175 410.525 627.361 402.357 627.572 393.94 627.576 393.798 627.695 393.685 627.836 393.688 646.285 394.235 663.747 406.014 667.671 424.597 668.108 426.674 668.3 428.347 668.247 429.616 668.169 431.484 666.36 432.776 664.636 431.962 664.22 431.769 663.951 431.337 663.592 431.069 663.445 430.96 663.263 430.91 663.084 430.929 654.845 431.875 646.59 432.892 638.32 433.981 633.113 434.67 627.809 435.66 622.519 436.561 613.433 438.108 607.117 439.387 603.571 440.399 597.553 442.118 592.935 443.313 589.718 443.984 588.311 444.279 586.307 441.495 585.871 440.229 583.529 433.379 583.958 425.626 586.31 418.859Z"/>
</svg>
